# xmcd
#
# Track frame offsets:
#  150
#  10900
#  22452
#  33705
#  45262
#  56672
#  68404
#  82434
#  93682
#
# Disc length: 1388 seconds
#
# Revision: 0
# Processed by: cddbd v1.5.2PL0 Copyright (c) Steve Scherf et al.
# Submitted via: AltoMP3_Maker 3.0
#
DISCID=7a056a09
DTITLE=Patsy Cline - Country Queen
DYEAR=1900
DGENRE=
TTITLE0=Honky Tonk Merry Go Round
TTITLE1=Crazy Dreams
TTITLE2=There He Goes
TTITLE3=That Wonderful Someone
TTITLE4=Hidin' Out
TTITLE5=Lonely Street
TTITLE6=A Church, A Courtroom And Then Goodbye
TTITLE7=I Cried All The Way To The Alter
TTITLE8=How Can I Face Tomorrow
EXTD=
EXTT0=
EXTT1=
EXTT2=
EXTT3=
EXTT4=
EXTT5=
EXTT6=
EXTT7=
EXTT8=
PLAYORDER=
